<?xml version="1.0" encoding="utf-8"?>
<!-- Generator: Adobe Illustrator 15.0.0, SVG Export Plug-In . SVG Version: 6.00 Build 0)  -->
<!DOCTYPE svg PUBLIC "-//W3C//DTD SVG 1.1//EN" "http://www.w3.org/Graphics/SVG/1.1/DTD/svg11.dtd">
<svg version="1.1" id="_x30_" xmlns="http://www.w3.org/2000/svg" xmlns:xlink="http://www.w3.org/1999/xlink" x="0px" y="0px"
	 width="202.167px" height="116.5px" viewBox="0 0 202.167 116.5" style="enable-background:new 0 0 202.167 116.5;"
	 xml:space="preserve">
<path d="M14.884,4.42c0-1.559-1.264-2.821-2.822-2.821H4.917c-1.559,0-2.822,1.263-2.822,2.821c0,0.001,0.012,49.938,0.012,49.938
	c0,1.558,1.264,2.821,2.822,2.821h17.162c1.559,0,2.822-1.264,2.822-2.822V33.331c0-1.559-1.263-2.822-2.822-2.822h-2.184
	c-2.774,0-5.023-2.249-5.023-5.023V4.42z"/>
<path d="M17.124,25.447c0,1.559,1.263,2.821,2.822,2.821h7.146c1.559,0,2.822-1.263,2.822-2.821V4.42
	c0-1.559-1.263-2.821-2.822-2.821h-7.146c-1.559,0-2.822,1.263-2.822,2.821V25.447z"/>
<path d="M29.975,57.18h17.161H29.975z"/>
<path d="M50.005,1.599c-1.559,0-2.822,1.263-2.822,2.821v21.027c0,1.559,1.263,2.821,2.822,2.821h7.146
	c1.558,0,2.822-1.263,2.822-2.821V4.42c0-1.559-1.264-2.821-2.822-2.821H50.005z"/>
<path d="M71.099,57.18H56.101c-2.156,0-3.903-1.748-3.903-3.903V34.384c0-2.141,1.735-3.875,3.875-3.875h1.07
	c2.8,0,5.07-2.271,5.07-5.07V5.501c0-2.155,1.748-3.902,3.903-3.902h4.983c2.156,0,3.903,1.747,3.903,3.902v47.775
	C75.002,55.432,73.255,57.18,71.099,57.18z"/>
<path d="M89.313,5.473c0-2.14-1.735-3.874-3.875-3.874h-4.322c-2.14,0-3.875,1.734-3.875,3.874v47.832
	c0,2.14,1.735,3.875,3.875,3.875h15.055c2.14,0,3.875-1.735,3.875-3.875V34.384c0-2.141-1.735-3.875-3.875-3.875h-1.703
	c-2.847,0-5.155-2.309-5.155-5.155V5.473z"/>
<path d="M94.375,1.599c-1.559,0-2.822,1.263-2.822,2.821v21.027c0,1.559,1.263,2.821,2.822,2.821h6.428
	c1.558,0,2.822-1.263,2.822-2.821V4.42c0-1.559-1.264-2.821-2.822-2.821H94.375z"/>
<path d="M121.216,57.18c2.14,0,3.875-1.735,3.875-3.875V33.301c0.015-1.446-1.133-2.699-2.574-2.812
	c-2.565-0.199-4.609-2.431-4.582-5.004V5.473c0-2.14-1.735-3.874-3.875-3.874h-4.322c-2.14,0-3.875,1.734-3.875,3.874v20.013
	c0.082,1.553-0.944,3.439-2.291,4.216c-0.757,0.436-1.333,1.495-1.287,2.367v21.236c0,2.14,1.735,3.875,3.875,3.875H121.216z"/>
<path d="M122.998,1.599c-1.559,0-2.822,1.263-2.822,2.821v21.027c0,1.559,1.264,2.821,2.822,2.821h6.427
	c1.559,0,2.822-1.263,2.822-2.821V4.42c0-1.559-1.263-2.821-2.822-2.821H122.998z"/>
<path d="M146.261,57.18c2.14,0,3.875-1.735,3.875-3.875V32.068c0.046-0.872-0.53-1.932-1.287-2.367
	c-1.347-0.776-2.372-2.663-2.291-4.216V5.473c0-2.14-1.735-3.874-3.875-3.874h-4.322c-2.14,0-3.875,1.734-3.875,3.874v20.013
	c0.027,2.573-2.016,4.805-4.582,5.004c-1.441,0.112-2.589,1.365-2.574,2.812v20.004c0,2.14,1.735,3.875,3.875,3.875H146.261z"/>
<path d="M151.62,1.599c-1.559,0-2.822,1.263-2.822,2.821v21.027c0,1.559,1.263,2.821,2.822,2.821h6.428
	c1.558,0,2.822-1.263,2.822-2.821V4.42c0-1.559-1.264-2.821-2.822-2.821H151.62z"/>
<path d="M158.086,30.509h-2.888c-1.559,0-2.822,1.264-2.822,2.822v19.974c0,2.14,1.735,3.875,3.875,3.875h15.027
	c2.155,0,3.903-1.748,3.903-3.903V5.501c0-2.155-1.748-3.902-3.903-3.902h-4.265c-2.156,0-3.903,1.747-3.903,3.902v19.984
	C163.109,28.26,160.86,30.509,158.086,30.509z"/>
<path d="M177.42,53.305c0,2.14,1.735,3.875,3.875,3.875h15.055c2.14,0,3.875-1.735,3.875-3.875V5.473
	c0-2.14-1.735-3.874-3.875-3.874h-15.055c-2.14,0-3.875,1.734-3.875,3.874V53.305z"/>
<path d="M14.884,83.307V62.241c0-1.559-1.264-2.822-2.822-2.822H4.931c-1.559,0-2.822,1.264-2.822,2.822v37.809
	c0,8.183,6.633,14.815,14.815,14.815h5.168c1.559,0,2.822-1.264,2.822-2.822V91.151c0-1.558-1.263-2.821-2.822-2.821h-2.184
	C17.133,88.33,14.884,86.081,14.884,83.307z"/>
<path d="M29.914,62.241v21.026c0,1.559-1.263,2.822-2.822,2.822h-7.146c-1.559,0-2.822-1.264-2.822-2.822V62.241
	c0-1.559,1.263-2.822,2.822-2.822h7.146C28.65,59.419,29.914,60.683,29.914,62.241z"/>
<path d="M96.172,114.865c2.14,0,3.875-1.735,3.875-3.875V92.205c0-2.141-1.735-3.875-3.875-3.875h-1.703
	c-2.847,0-5.155-2.309-5.155-5.155V63.294c0-2.14-1.735-3.875-3.875-3.875h-4.322c-2.14,0-3.875,1.735-3.875,3.875v47.696
	c0,2.14,1.735,3.875,3.875,3.875H96.172z"/>
<path d="M117.936,63.294v20.013c-0.027,2.573,2.016,4.805,4.582,5.004c1.441,0.111,2.589,1.365,2.574,2.811v20.061
	c0,2.141-1.735,3.875-3.875,3.875h-15.055c-2.14,0-3.875-1.734-3.875-3.875V89.89c-0.046-0.872,0.53-1.932,1.287-2.368
	c1.347-0.775,2.372-2.662,2.291-4.215V63.294c0-2.14,1.735-3.875,3.875-3.875h4.322C116.201,59.419,117.936,61.154,117.936,63.294z"
	/>
<path d="M132.247,62.241v21.026c0,1.559-1.263,2.822-2.822,2.822h-6.427c-1.559,0-2.822-1.264-2.822-2.822V62.241
	c0-1.559,1.264-2.822,2.822-2.822h6.427C130.983,59.419,132.247,60.683,132.247,62.241z"/>
<path d="M146.261,115.001h-15.055c-2.14,0-3.875-1.735-3.875-3.875V91.121c-0.015-1.445,1.133-2.699,2.574-2.811
	c2.565-0.199,4.609-2.431,4.582-5.004V63.294c0-2.14,1.735-3.875,3.875-3.875h4.322c2.14,0,3.875,1.735,3.875,3.875v20.013
	c-0.082,1.553,0.944,3.439,2.291,4.215c0.757,0.437,1.333,1.496,1.287,2.368v21.236
	C150.136,113.266,148.401,115.001,146.261,115.001z"/>
<path d="M160.869,62.241v21.026c0,1.559-1.264,2.822-2.822,2.822h-6.428c-1.559,0-2.822-1.264-2.822-2.822V62.241
	c0-1.559,1.263-2.822,2.822-2.822h6.428C159.605,59.419,160.869,60.683,160.869,62.241z"/>
<path d="M175.18,63.322c0-2.155-1.748-3.903-3.903-3.903h-4.265c-2.156,0-3.903,1.748-3.903,3.903v19.984
	c0,2.774-2.249,5.023-5.023,5.023h-2.888c-1.559,0-2.822,1.264-2.822,2.821v19.839c0,2.14,1.735,3.875,3.875,3.875h15.027
	c2.155,0,3.903-1.748,3.903-3.903V63.322z"/>
<path d="M181.295,59.419c-2.14,0-3.875,1.735-3.875,3.875v47.832c0,2.14,1.735,3.875,3.875,3.875h4.115
	c8.182,0,14.815-6.634,14.815-14.815V63.294c0-2.14-1.735-3.875-3.875-3.875H181.295z"/>
<path d="M49.958,90.623v21.42c0,1.559-1.263,2.822-2.822,2.822H29.975c-1.559,0-2.822-1.264-2.822-2.822V90.618
	c-0.042-1.102,0.757-2.271,1.799-2.63c1.854-0.64,3.278-2.722,3.202-4.682V62.119v-0.002c0.001-1.559,1.266-2.821,2.825-2.819
	l7.146,0.006c1.558,0.001,2.82,1.265,2.819,2.822v21.181c-0.076,1.964,1.352,4.048,3.211,4.685
	C49.198,88.35,50,89.521,49.958,90.623z"/>
<path d="M57.151,59.419c1.558,0,2.822,1.264,2.822,2.822v21.026c0,1.559-1.264,2.822-2.822,2.822h-7.146
	c-1.559,0-2.822-1.264-2.822-2.822V62.241c0-1.559,1.263-2.822,2.822-2.822H57.151z"/>
<path d="M56.101,114.865c-2.156,0-3.903-1.748-3.903-3.903V92.205c0-2.141,1.735-3.875,3.875-3.875h1.07
	c2.8,0,5.07-2.271,5.07-5.071V63.322c0-2.155,1.748-3.903,3.903-3.903h4.983c2.156,0,3.903,1.748,3.903,3.903v47.64
	c0,2.155-1.747,3.903-3.903,3.903H56.101z"/>
<path d="M100.803,59.419c1.558,0,2.822,1.264,2.822,2.822v21.026c0,1.559-1.264,2.822-2.822,2.822h-6.428
	c-1.559,0-2.822-1.264-2.822-2.822V62.241c0-1.559,1.263-2.822,2.822-2.822H100.803z"/>
<path d="M49.958,32.931v21.42c0,1.559-1.263,2.822-2.822,2.822H29.975c-1.559,0-2.822-1.264-2.822-2.822V32.926
	c-0.042-1.102,0.757-2.271,1.799-2.63c1.854-0.64,3.278-2.722,3.202-4.682V4.427V4.425c0.001-1.559,1.266-2.821,2.825-2.819
	l7.146,0.006c1.558,0.001,2.82,1.265,2.819,2.822v21.181c-0.076,1.964,1.352,4.048,3.211,4.685
	C49.198,30.657,50,31.828,49.958,32.931z"/>
</svg>
