0
SECTION
2
HEADER
9
$INSUNITS
70
4
9
$ACADVER
1
AC1014
9
$HANDSEED
5
FFFF
0
ENDSEC
0
SECTION
2
TABLES
0
TABLE
2
VPORT
5
8
100
AcDbSymbolTable
0
ENDTAB
0
TABLE
2
LTYPE
5
5
100
AcDbSymbolTable
0
LTYPE
5
14
100
AcDbSymbolTableRecord
100
AcDbLinetypeTableRecord
2
BYBLOCK
70
0
0
LTYPE
5
15
100
AcDbSymbolTableRecord
100
AcDbLinetypeTableRecord
2
BYLAYER
70
0
0
ENDTAB
0
TABLE
2
LAYER
5
2
100
AcDbSymbolTable
70
2
0
LAYER
5
50
100
AcDbSymbolTableRecord
100
AcDbLayerTableRecord
2
0
70
0
6
CONTINUOUS
0
ENDTAB
0
TABLE
2
STYLE
5
3
100
AcDbSymbolTable
70
1
0
STYLE
5
11
100
AcDbSymbolTableRecord
100
AcDbTextStyleTableRecord
2
STANDARD
70
0
0
ENDTAB
0
TABLE
2
VIEW
5
6
100
AcDbSymbolTable
70
0
0
ENDTAB
0
TABLE
2
UCS
5
7
100
AcDbSymbolTable
70
0
0
ENDTAB
0
TABLE
2
APPID
5
9
100
AcDbSymbolTable
70
2
0
APPID
5
12
100
AcDbSymbolTableRecord
100
AcDbRegAppTableRecord
2
ACAD
70
0
0
ENDTAB
0
TABLE
2
DIMSTYLE
5
A
100
AcDbSymbolTable
70
1
0
ENDTAB
0
TABLE
2
BLOCK_RECORD
5
1
100
AcDbSymbolTable
70
1
0
BLOCK_RECORD
5
1F
100
AcDbSymbolTableRecord
100
AcDbBlockTableRecord
2
*MODEL_SPACE
0
BLOCK_RECORD
5
1B
100
AcDbSymbolTableRecord
100
AcDbBlockTableRecord
2
*PAPER_SPACE
0
ENDTAB
0
ENDSEC
0
SECTION
2
BLOCKS
0
BLOCK
5
20
100
AcDbEntity
100
AcDbBlockBegin
2
*MODEL_SPACE
0
ENDBLK
5
21
100
AcDbEntity
100
AcDbBlockEnd
0
BLOCK
5
1C
100
AcDbEntity
100
AcDbBlockBegin
2
*PAPER_SPACE
0
ENDBLK
5
1D
100
AcDbEntity
100
AcDbBlockEnd
0
ENDSEC
0
SECTION
2
ENTITIES
0
LWPOLYLINE
5
100
100
AcDbEntity
8
0
100
AcDbPolyline
90
12
70
1
43
0.0
10
-30.575774985098839
20
-17.464787966447805
42
0.41421356237309503
10
-31.575774985098839
20
-16.464787966447805
10
-34.107684076013015
20
-16.464787966447805
42
0.41428503641280767
10
-35.107684046239768
20
-17.465031987914418
10
-35.103365781232455
20
-35.161281987914421
42
0.41414209194548335
10
-34.103365811005688
20
-36.1610379664478
10
-28.02177498509884
20
-36.1610379664478
42
0.41421356237309503
10
-27.021774985098833
20
-35.161037966447793
10
-27.021774985098833
20
-27.709787966447802
42
0.41421356237309503
10
-28.02177498509884
20
-26.709787966447799
10
-28.795774985098848
20
-26.709787966447799
42
-0.41421356237309209
10
-30.575774985098839
20
-24.929787966447808
0
LWPOLYLINE
5
101
100
AcDbEntity
8
0
100
AcDbPolyline
90
8
70
1
43
0.0
10
-29.78202498509884
20
-24.916037966447796
42
0.41421356237309503
10
-28.782024985098836
20
-25.916037966447799
10
-26.249774985098846
20
-25.916037966447799
42
0.41421356237309503
10
-25.249774985098835
20
-24.916037966447789
10
-25.249774985098838
20
-17.464787966447812
42
0.41421356237309503
10
-26.249774985098846
20
-16.464787966447808
10
-28.78202498509884
20
-16.464787966447808
42
0.41421356237309503
10
-29.78202498509884
20
-17.464787966447808
0
ARC
5
102
100
AcDbEntity
8
0
100
AcDbCircle
10
-25.228024985098831
20
-35.161037966447793
30
0
40
1.0000000000000053
210
0
220
0
230
1
100
AcDbArc
50
180
51
270
0
LINE
5
103
100
AcDbEntity
8
0
100
AcDbLine
10
-25.228024985098831
20
-36.1610379664478
30
0
11
-19.146774985098844
21
-36.1610379664478
31
0
0
ARC
5
104
100
AcDbEntity
8
0
100
AcDbCircle
10
-19.146774985098844
20
-35.161037966447793
30
0
40
1.0000000000000053
210
-0
220
0
230
1
100
AcDbArc
50
-90
51
0
0
LINE
5
105
100
AcDbEntity
8
0
100
AcDbLine
10
-18.146774985098837
20
-35.161037966447793
30
0
11
-18.146774985098837
21
-27.522545378933593
31
0
0
ARC
5
106
100
AcDbEntity
8
0
100
AcDbCircle
10
-19.146774985098844
20
-27.522545378933593
30
0
40
1.0000000000000053
210
0
220
-0
230
1
100
AcDbArc
50
0
51
68.851195475788899
0
ARC
5
107
100
AcDbEntity
8
0
100
AcDbCircle
10
-18.143774985098844
20
-24.929787966447805
30
0
40
1.7799999999999949
210
0
220
0
230
1
100
AcDbArc
50
180
51
248.85119547578913
0
LINE
5
108
100
AcDbEntity
8
0
100
AcDbLine
10
-19.923774985098838
20
-24.929787966447805
30
0
11
-19.923774985098838
21
-17.464787966447805
31
0
0
ARC
5
109
100
AcDbEntity
8
0
100
AcDbCircle
10
-20.923774985098838
20
-17.464787966447805
30
0
40
1.0000000000000009
210
0
220
-0
230
1
100
AcDbArc
50
0
51
90
0
LINE
5
110
100
AcDbEntity
8
0
100
AcDbLine
10
-20.923774985098838
20
-16.464787966447801
30
0
11
-23.45602498509885
21
-16.464787966447805
31
0
0
ARC
5
111
100
AcDbEntity
8
0
100
AcDbCircle
10
-23.45602498509885
20
-17.464787966447808
30
0
40
1.0000000000000031
210
0
220
-0
230
1
100
AcDbArc
50
90
51
180
0
LINE
5
112
100
AcDbEntity
8
0
100
AcDbLine
10
-24.45602498509885
20
-17.464787966447808
30
0
11
-24.45602498509885
21
-24.929787966447797
31
0
0
ARC
5
113
100
AcDbEntity
8
0
100
AcDbCircle
10
-26.236024985098855
20
-24.929787966447794
30
0
40
1.7800000000000038
210
0
220
0
230
1
100
AcDbArc
50
291.2593378168836
51
360
0
ARC
5
114
100
AcDbEntity
8
0
100
AcDbCircle
10
-25.228024985098845
20
-27.520605598007371
30
0
40
0.99999999999999478
210
0
220
0
230
1
100
AcDbArc
50
111.25933781688362
51
180
0
LINE
5
115
100
AcDbEntity
8
0
100
AcDbLine
10
-26.228024985098838
20
-27.520605598007371
30
0
11
-26.228024985098838
21
-35.161037966447793
31
0
0
LWPOLYLINE
5
116
100
AcDbEntity
8
0
100
AcDbPolyline
90
8
70
1
43
0.0
10
-18.130024985098835
20
-16.464787966447805
42
0.41421356237309503
10
-19.130024985098835
20
-17.464787966447805
10
-19.130024985098832
20
-24.916037966447814
42
0.41421356237309503
10
-18.130024985098842
20
-25.916037966447803
10
-15.59777498509883
20
-25.916037966447803
42
0.41421356237309503
10
-14.597774985098834
20
-24.91603796644781
10
-14.597774985098837
20
-17.464787966447805
42
0.41421356237309503
10
-15.597774985098836
20
-16.464787966447805
0
ARC
5
117
100
AcDbEntity
8
0
100
AcDbCircle
10
-15.979899985098832
20
-28.082912966447804
30
0
40
1.3731250000000017
210
0
220
0
230
1
100
AcDbArc
50
90.000000000000441
51
180
0
LINE
5
118
100
AcDbEntity
8
0
100
AcDbLine
10
-17.353024985098834
20
-28.082912966447804
30
0
11
-17.353024985098834
21
-34.777912966447786
31
0
0
ARC
5
119
100
AcDbEntity
8
0
100
AcDbCircle
10
-15.969899985098836
20
-34.777912966447786
30
0
40
1.3831249999999984
210
0
220
0
230
1
100
AcDbArc
50
180
51
269.9999999999996
0
LINE
5
120
100
AcDbEntity
8
0
100
AcDbLine
10
-15.969899985098845
20
-36.161037966447786
30
0
11
-10.654899985098865
21
-36.161037966447807
31
0
0
ARC
5
121
100
AcDbEntity
8
0
100
AcDbCircle
10
-10.654899985098858
20
-34.777912966447808
30
0
40
1.3831249999999962
210
0
220
0
230
1
100
AcDbArc
50
-90.000000000000313
51
0
0
LINE
5
122
100
AcDbEntity
8
0
100
AcDbLine
10
-9.2717749850988618
20
-34.777912966447808
30
0
11
-9.2717749850988387
21
-17.847912966447804
31
0
0
ARC
5
123
100
AcDbEntity
8
0
100
AcDbCircle
10
-10.654899985098838
20
-17.847912966447804
30
0
40
1.3831249999999995
210
-0
220
0
230
1
100
AcDbArc
50
0
51
90
0
LINE
5
124
100
AcDbEntity
8
0
100
AcDbLine
10
-10.654899985098838
20
-16.464787966447805
30
0
11
-12.420899985098837
21
-16.464787966447805
31
0
0
ARC
5
125
100
AcDbEntity
8
0
100
AcDbCircle
10
-12.420899985098838
20
-17.847912966447797
30
0
40
1.3831249999999939
210
0
220
-0
230
1
100
AcDbArc
50
89.999999999999929
51
180
0
LINE
5
126
100
AcDbEntity
8
0
100
AcDbLine
10
-13.804024985098833
20
-17.847912966447797
30
0
11
-13.804024985098835
21
-24.912912966447806
31
0
0
ARC
5
127
100
AcDbEntity
8
0
100
AcDbCircle
10
-15.600899985098824
20
-24.912912966447813
30
0
40
1.7968749999999867
210
0
220
0
230
1
100
AcDbArc
50
-89.999999999999702
51
0
0
LINE
5
128
100
AcDbEntity
8
0
100
AcDbLine
10
-15.600899985098813
20
-26.709787966447799
30
0
11
-15.979899985098843
21
-26.709787966447802
31
0
0
LWPOLYLINE
5
129
100
AcDbEntity
8
0
100
AcDbPolyline
90
12
70
1
43
0.0
10
-4.2003464136702657
20
-17.837912966447806
42
0.41421356237309576
10
-5.5734714136702657
20
-16.464787966447805
10
-7.1048999850988377
20
-16.464787966447805
42
0.41421356237309553
10
-8.4780249850988376
20
-17.837912966447806
10
-8.4780249850988412
20
-34.787912966447841
42
0.41421356237309481
10
-7.1048999850988732
20
-36.161037966447807
10
-1.7698999850988395
20
-36.161037966447815
42
0.41421356237309503
10
-0.39677498509883335
20
-34.787912966447806
10
-0.39677498509883447
20
-28.082912966447804
42
0.41421356237309465
10
-1.7698999850988326
20
-26.709787966447802
10
-2.3734714136702708
20
-26.709787966447816
42
-0.41421356237309687
10
-4.2003464136702755
20
-24.882912966447805
0
LWPOLYLINE
5
130
100
AcDbEntity
8
0
100
AcDbPolyline
90
8
70
1
43
0.0
10
-2.4065964136702664
20
-16.464787966447808
42
0.41421356237309503
10
-3.4065964136702656
20
-17.464787966447805
10
-3.4065964136702682
20
-24.916037966447799
42
0.41421356237309503
10
-2.4065964136702713
20
-25.916037966447796
10
-0.12891784224168396
20
-25.916037966447796
42
0.41421356237309503
10
0.87108215775831255
20
-24.916037966447799
10
0.87108215775830633
20
-17.464787966447805
42
0.41421356237309503
10
-0.12891784224168812
20
-16.464787966447812
0
LWPOLYLINE
5
131
100
AcDbEntity
8
0
100
AcDbPolyline
90
14
70
1
43
0.0
10
7.1051000149011747
20
-36.161037966447708
42
0.41421356237309415
10
8.4782250149010867
20
-34.787912966447799
10
8.4782250149010352
20
-27.699034161677627
42
0.38867164722723058
10
7.5660975739966609
20
-26.70290243677476
42
-0.38867164722723407
10
5.9425107291868571
20
-24.92978796644762
10
5.9425107291868775
20
-17.837912966447817
42
0.41421356237309614
10
4.5693857291868749
20
-16.464787966447808
10
3.037957157758282
20
-16.464787966447783
42
0.41421356237309576
10
1.6648321577582836
20
-17.837912966447785
10
1.6648321577582821
20
-24.929787966447684
42
-0.25419187970147672
10
0.8530315220754553
20
-26.42343785545642
42
0.25419080852337317
10
0.39696046135284657
20
-27.262573330517306
10
0.39696973630430316
20
-34.787905738310521
42
0.41421512502928126
10
1.7701012115613519
20
-36.161036170795271
0
LWPOLYLINE
5
132
100
AcDbEntity
8
0
100
AcDbPolyline
90
8
70
1
43
0.0
10
7.7362607291868795
20
-16.464787966447808
42
0.41421356237309503
10
6.7362607291868803
20
-17.464787966447808
10
6.7362607291868777
20
-24.916037966447796
42
0.41421356237309503
10
7.736260729186883
20
-25.916037966447799
10
10.013939300615458
20
-25.916037966447799
42
0.41421356237309503
10
11.01393930061545
20
-24.91603796644781
10
11.013939300615448
20
-17.464787966447808
42
0.41421356237309503
10
10.013939300615448
20
-16.464787966447812
0
LWPOLYLINE
5
133
100
AcDbEntity
8
0
100
AcDbPolyline
90
14
70
1
43
0.0
10
15.980100014901161
20
-36.161037966448568
42
0.41421356237309503
10
17.353225014901806
20
-34.787912966447919
10
17.353225014901163
20
-27.262559704015899
42
0.25419059436638181
10
16.897161294449244
20
-26.423433179710369
42
-0.2541905943663792
10
16.085367872044039
20
-24.929787966447812
10
16.085367872044028
20
-17.837912966447814
42
0.41421356237316942
10
14.712242872043666
20
-16.464787966447815
10
13.180814300615465
20
-16.464787966447727
42
0.41421356237309598
10
11.807689300615376
20
-17.837912966447806
10
11.80768930061541
20
-24.929787966447808
42
-0.38867145374587081
10
10.184103647969122
20
-26.702902331609252
42
0.38867194675562022
10
9.2719768768203235
20
-27.699039551035554
10
9.2719863989746649
20
-34.787914810903033
42
0.41421316894339755
10
10.645111398973505
20
-36.161037966448568
0
LWPOLYLINE
5
134
100
AcDbEntity
8
0
100
AcDbPolyline
90
8
70
1
43
0.0
10
17.879117872044027
20
-16.464787966447808
42
0.41421356237309503
10
16.879117872044024
20
-17.464787966447808
10
16.879117872044027
20
-24.916037966447799
42
0.41421356237309503
10
17.879117872044027
20
-25.916037966447799
10
20.156796443472604
20
-25.916037966447799
42
0.41421356237309503
10
21.156796443472597
20
-24.91603796644781
10
21.156796443472597
20
-17.464787966447801
42
0.41421356237309503
10
20.156796443472604
20
-16.464787966447808
0
LWPOLYLINE
5
135
100
AcDbEntity
8
0
100
AcDbPolyline
90
12
70
1
43
0.0
10
20.170546443472603
20
-26.709787966447799
10
19.146975014901166
20
-26.709787966447799
42
0.41421356237309503
10
18.146975014901166
20
-27.709787966447799
10
18.146975014901166
20
-34.787912966447806
42
0.41421356237309503
10
19.520100014901168
20
-36.161037966447807
10
24.845100014901167
20
-36.161037966447807
42
0.41421356237309503
10
26.228225014901167
20
-34.777912966447808
10
26.228225014901167
20
-17.847912966447808
42
0.41421356237309503
10
24.845100014901167
20
-16.464787966447808
10
23.333671443472596
20
-16.464787966447805
42
0.41421356237309503
10
21.950546443472589
20
-17.847912966447808
10
21.950546443472593
20
-24.929787966447808
42
-0.41421356237309209
0
LWPOLYLINE
5
136
100
AcDbEntity
8
0
100
AcDbPolyline
90
8
70
1
43
0.0
10
27.021975014901159
20
-34.787912966447806
42
0.41421356237309503
10
28.395100014901168
20
-36.161037966447807
10
33.729999985098821
20
-36.161037966447807
42
0.41421356237309503
10
35.10312498509883
20
-34.787912966447806
10
35.10312498509883
20
-17.83791296644781
42
0.41421356237309503
10
33.729999985098829
20
-16.464787966447808
10
28.395100014901161
20
-16.464787966447808
42
0.41421356237309503
10
27.021975014901159
20
-17.83791296644781
0
LWPOLYLINE
5
137
100
AcDbEntity
8
0
100
AcDbPolyline
90
12
70
1
43
0.0
10
-30.575774985098853
20
-45.419787966447807
10
-30.575774985098853
20
-37.954787966447803
42
0.41421356237309503
10
-31.575774985098853
20
-36.954787966447803
10
-34.10302498509872
20
-36.954787966447803
42
0.41421356237309243
10
-35.103024985098706
20
-37.954787966447782
10
-35.103024985098799
20
-51.353024985098791
42
0.41421356237309703
10
-29.853024985098784
20
-56.603024985098841
10
-28.02177498509888
20
-56.603024985098841
42
0.41421356237308332
10
-27.021774985098887
20
-55.603024985098877
10
-27.021774985098851
20
-48.199787966447829
42
0.41421356237309631
10
-28.021774985098858
20
-47.199787966447815
10
-28.795774985098856
20
-47.199787966447801
42
-0.41421356237309581
0
ARC
5
138
100
AcDbEntity
8
0
100
AcDbCircle
10
-28.782024985098836
20
-37.954787966447803
30
0
40
1.0000000000000053
210
0
220
-0
230
1
100
AcDbArc
50
90
51
180
0
LINE
5
139
100
AcDbEntity
8
0
100
AcDbLine
10
-29.78202498509884
20
-37.954787966447803
30
0
11
-29.782024985098843
21
-45.406037966447805
31
0
0
ARC
5
140
100
AcDbEntity
8
0
100
AcDbCircle
10
-28.78202498509885
20
-45.406037966447805
30
0
40
0.99999999999999645
210
0
220
0
230
1
100
AcDbArc
50
180
51
270
0
LINE
5
141
100
AcDbEntity
8
0
100
AcDbLine
10
-28.78202498509885
20
-46.406037966447798
30
0
11
-26.249774985098831
21
-46.406037966447798
31
0
0
ARC
5
142
100
AcDbEntity
8
0
100
AcDbCircle
10
-26.249774985098831
20
-45.406037966447805
30
0
40
0.99999999999999645
210
0
220
0
230
1
100
AcDbArc
50
-90
51
0
0
LINE
5
143
100
AcDbEntity
8
0
100
AcDbLine
10
-25.249774985098835
20
-45.406037966447805
30
0
11
-25.249774985098838
21
-37.954787966447803
31
0
0
ARC
5
144
100
AcDbEntity
8
0
100
AcDbCircle
10
-26.249774985098838
20
-37.954787966447803
30
0
40
1.0000000000000009
210
0
220
-0
230
1
100
AcDbArc
50
0
51
90
0
LINE
5
145
100
AcDbEntity
8
0
100
AcDbLine
10
-26.249774985098838
20
-36.954787966447796
30
0
11
-28.782024985098836
21
-36.954787966447796
31
0
0
ARC
5
146
100
AcDbEntity
8
0
100
AcDbCircle
10
-25.228024985098859
20
-48.010605598009434
30
0
40
1.000000000000008
210
0
220
0
230
1
100
AcDbArc
50
111.25933781688259
51
180
0
LINE
5
147
100
AcDbEntity
8
0
100
AcDbLine
10
-26.22802498509887
20
-48.010605598009434
30
0
11
-26.228024985098859
21
-55.603024985098827
31
0
0
ARC
5
148
100
AcDbEntity
8
0
100
AcDbCircle
10
-25.228024985098859
20
-55.603024985098834
30
0
40
1.0000000000000009
210
0
220
0
230
1
100
AcDbArc
50
180
51
270.00000000000023
0
LINE
5
149
100
AcDbEntity
8
0
100
AcDbLine
10
-25.228024985098855
20
-56.603024985098841
30
0
11
-19.146774985098823
21
-56.603024985098841
31
0
0
ARC
5
150
100
AcDbEntity
8
0
100
AcDbCircle
10
-19.146774985098823
20
-55.603024985098855
30
0
40
0.99999999999997868
210
-0
220
0
230
1
100
AcDbArc
50
-90
51
0
0
LINE
5
151
100
AcDbEntity
8
0
100
AcDbLine
10
-18.146774985098844
20
-55.603024985098855
30
0
11
-18.146774985098833
21
-48.012545378933623
31
0
0
ARC
5
152
100
AcDbEntity
8
0
100
AcDbCircle
10
-19.146774985098848
20
-48.012545378933623
30
0
40
1.0000000000000164
210
0
220
-0
230
1
100
AcDbArc
50
0
51
68.851195475788927
0
ARC
5
153
100
AcDbEntity
8
0
100
AcDbCircle
10
-18.143774985098847
20
-45.419787966447835
30
0
40
1.7799999999999971
210
0
220
0
230
1
100
AcDbArc
50
180
51
248.85119547578915
0
LINE
5
154
100
AcDbEntity
8
0
100
AcDbLine
10
-19.923774985098845
20
-45.419787966447835
30
0
11
-19.923774985098841
21
-37.913854532712193
31
0
0
LINE
5
155
100
AcDbEntity
8
0
100
AcDbLine
10
-24.456024985098853
20
-37.911615605206322
30
0
11
-24.456024985098846
21
-45.419787966449817
31
0
0
ARC
5
156
100
AcDbEntity
8
0
100
AcDbCircle
10
-26.236024985098855
20
-45.419787966449832
30
0
40
1.7800000000000062
210
0
220
0
230
1
100
AcDbArc
50
-68.740662183116569
51
0
0
ARC
5
157
100
AcDbEntity
8
0
100
AcDbCircle
10
-18.130024985098835
20
-37.954787966447803
30
0
40
1.0000000000000009
210
0
220
-0
230
1
100
AcDbArc
50
90
51
180
0
LINE
5
158
100
AcDbEntity
8
0
100
AcDbLine
10
-19.130024985098835
20
-37.954787966447803
30
0
11
-19.130024985098842
21
-45.406037966447805
31
0
0
ARC
5
159
100
AcDbEntity
8
0
100
AcDbCircle
10
-18.130024985098846
20
-45.406037966447805
30
0
40
0.99999999999999645
210
0
220
0
230
1
100
AcDbArc
50
180
51
270
0
LINE
5
160
100
AcDbEntity
8
0
100
AcDbLine
10
-18.130024985098846
20
-46.406037966447798
30
0
11
-15.59777498509883
21
-46.406037966447798
31
0
0
LINE
5
161
100
AcDbEntity
8
0
100
AcDbLine
10
-14.597774985098834
20
-45.406037966447805
30
0
11
-14.597774985098839
21
-37.954787966447803
31
0
0
ARC
5
162
100
AcDbEntity
8
0
100
AcDbCircle
10
-15.597774985098841
20
-37.954787966447803
30
0
40
1.0000000000000009
210
0
220
-0
230
1
100
AcDbArc
50
0
51
90
0
LINE
5
163
100
AcDbEntity
8
0
100
AcDbLine
10
-15.597774985098841
20
-36.954787966447796
30
0
11
-18.130024985098835
21
-36.954787966447796
31
0
0
ARC
5
164
100
AcDbEntity
8
0
100
AcDbCircle
10
-10.654899985098838
20
-38.337912966447803
30
0
40
1.3831249999999973
210
-0
220
0
230
1
100
AcDbArc
50
0
51
90
0
LINE
5
165
100
AcDbEntity
8
0
100
AcDbLine
10
-13.804024985098831
20
-38.337912966447803
30
0
11
-13.804024985098833
21
-45.402912966447822
31
0
0
ARC
5
166
100
AcDbEntity
8
0
100
AcDbCircle
10
-15.600899985098827
20
-45.402912966447829
30
0
40
1.7968749999999911
210
0
220
0
230
1
100
AcDbArc
50
-90.000000000003965
51
0
0
ARC
5
167
100
AcDbEntity
8
0
100
AcDbCircle
10
-15.979899985098855
20
-48.572912966447774
30
0
40
1.3731249999999751
210
0
220
-0
230
1
100
AcDbArc
50
89.999999999996504
51
180
0
LINE
5
168
100
AcDbEntity
8
0
100
AcDbLine
10
-17.353024985098831
20
-48.572912966447774
30
0
11
-17.353024985098841
21
-55.219899985098841
31
0
0
ARC
5
169
100
AcDbEntity
8
0
100
AcDbCircle
10
-15.969899985098841
20
-55.219899985098841
30
0
40
1.3831249999999984
210
0
220
0
230
1
100
AcDbArc
50
180
51
270.00000000000017
0
LINE
5
170
100
AcDbEntity
8
0
100
AcDbLine
10
-15.969899985098838
20
-56.603024985098841
30
0
11
-10.654899985098824
21
-56.603024985098841
31
0
0
ARC
5
171
100
AcDbEntity
8
0
100
AcDbCircle
10
-10.654899985098826
20
-55.219899985098849
30
0
40
1.3831249999999873
210
0
220
0
230
1
100
AcDbArc
50
-89.999999999999901
51
0
0
LINE
5
172
100
AcDbEntity
8
0
100
AcDbLine
10
-9.2717749850988405
20
-55.219899985098841
30
0
11
-9.2717749850988405
21
-38.337912966447803
31
0
0
LWPOLYLINE
5
173
100
AcDbEntity
8
0
100
AcDbPolyline
90
12
70
1
43
0.0
10
-1.769899985098879
20
-56.603024985098848
42
0.41421356237309559
10
-0.39677498509886555
20
-55.229899985098839
10
-0.39677498509886222
20
-48.572912966447788
42
0.41421356237309503
10
-1.7698999850988621
20
-47.199787966447786
10
-2.3734714136703166
20
-47.199787966447808
42
-0.41421356237309698
10
-4.2003464136703297
20
-45.372912966447785
10
-4.2003464136703128
20
-38.327912966447798
42
0.4142135623730962
10
-5.5734714136703118
20
-36.954787966447796
10
-7.1048999850988821
20
-36.954787966447796
42
0.4142135623730962
10
-8.4780249850988803
20
-38.327912966447798
10
-8.4780249850988358
20
-55.229899985098854
42
0.4142135623730927
10
-7.1048999850988466
20
-56.603024985098841
0
ARC
5
174
100
AcDbEntity
8
0
100
AcDbCircle
10
-2.4065964136702709
20
-37.954787966447789
30
0
40
0.99999999999999645
210
0
220
-0
230
1
100
AcDbArc
50
90
51
180
0
LINE
5
175
100
AcDbEntity
8
0
100
AcDbLine
10
-3.4065964136702673
20
-37.954787966447789
30
0
11
-3.4065964136702727
21
-45.406037966447805
31
0
0
LINE
5
176
100
AcDbEntity
8
0
100
AcDbLine
10
-2.4065964136702758
20
-46.406037966447798
30
0
11
-0.12891784224168396
21
-46.406037966447798
31
0
0
ARC
5
177
100
AcDbEntity
8
0
100
AcDbCircle
10
-0.12891784224168396
20
-45.406037966447805
30
0
40
0.99999999999999645
210
0
220
0
230
1
100
AcDbArc
50
-90
51
0
0
LINE
5
178
100
AcDbEntity
8
0
100
AcDbLine
10
0.87108215775831233
20
-45.406037966447805
30
0
11
0.87108215775830744
21
-37.954787966447789
31
0
0
ARC
5
179
100
AcDbEntity
8
0
100
AcDbCircle
10
-0.12891784224168409
20
-37.954787966447789
30
0
40
0.99999999999999156
210
0
220
-0
230
1
100
AcDbArc
50
0
51
90
0
LINE
5
180
100
AcDbEntity
8
0
100
AcDbLine
10
-0.12891784224168409
20
-36.954787966447796
30
0
11
-2.4065964136702709
21
-36.954787966447796
31
0
0
ARC
5
181
100
AcDbEntity
8
0
100
AcDbCircle
10
3.0379571577583002
20
-38.327912966447798
30
0
40
1.3731249999999973
210
0
220
-0
230
1
100
AcDbArc
50
90
51
180
0
LINE
5
182
100
AcDbEntity
8
0
100
AcDbLine
10
1.664832157758303
20
-38.327912966447798
30
0
11
1.6648321577583147
21
-45.419787966447785
31
0
0
ARC
5
183
100
AcDbEntity
8
0
100
AcDbCircle
10
-0.11516784224172294
20
-45.419787966447785
30
0
40
1.7800000000000344
210
0
220
0
230
1
100
AcDbArc
50
-57.047997365275414
51
0
0
ARC
5
184
100
AcDbEntity
8
0
100
AcDbCircle
10
1.3969750149011728
20
-47.752559704014899
30
0
40
0.99999999999999689
210
0
220
0
230
1
100
AcDbArc
50
122.95200263472495
51
180
0
LINE
5
185
100
AcDbEntity
8
0
100
AcDbLine
10
0.39697501490117593
20
-47.752559704014899
30
0
11
0.39697501490116471
21
-55.297912966447818
31
0
0
ARC
5
186
100
AcDbEntity
8
0
100
AcDbCircle
10
1.7701000149011628
20
-55.297912966447804
30
0
40
1.3731249999999982
210
0
220
0
230
1
100
AcDbArc
50
180
51
270.00113407286705
0
LINE
5
187
100
AcDbEntity
8
0
100
AcDbLine
10
1.770127193583759
20
-56.671037966178815
30
0
11
7.1051271935837548
21
-56.670932368894043
31
0
0
ARC
5
188
100
AcDbEntity
8
0
100
AcDbCircle
10
7.1051000149011578
20
-55.29780736916301
30
0
40
1.3731250000000126
210
-0
220
0
230
1
100
AcDbArc
50
-89.998865927132883
51
0
0
LINE
5
189
100
AcDbEntity
8
0
100
AcDbLine
10
8.4782250149011702
20
-55.29780736916301
30
0
11
8.4782250149011613
21
-48.18903416167786
31
0
0
ARC
5
190
100
AcDbEntity
8
0
100
AcDbCircle
10
7.4782250149011711
20
-48.18903416167786
30
0
40
0.9999999999999909
210
-0
220
0
230
1
100
AcDbArc
50
0
51
84.958771264412221
0
ARC
5
191
100
AcDbEntity
8
0
100
AcDbCircle
10
7.7225107291868644
20
-45.419787966447814
30
0
40
1.7800000000000082
210
0
220
0
230
1
100
AcDbArc
50
180
51
264.95877126441189
0
LINE
5
192
100
AcDbEntity
8
0
100
AcDbLine
10
5.9425107291868562
20
-45.419787966447807
30
0
11
5.9425107291868775
21
-38.327912966447812
31
0
0
ARC
5
193
100
AcDbEntity
8
0
100
AcDbCircle
10
4.5693857291868758
20
-38.327912966447805
30
0
40
1.3731250000000017
210
-0
220
0
230
1
100
AcDbArc
50
0
51
90
0
LINE
5
194
100
AcDbEntity
8
0
100
AcDbLine
10
4.5693857291868758
20
-36.954787966447803
30
0
11
3.0379571577583002
21
-36.954787966447803
31
0
0
ARC
5
195
100
AcDbEntity
8
0
100
AcDbCircle
10
7.7362607291868759
20
-37.954787966447789
30
0
40
0.99999999999999201
210
0
220
-0
230
1
100
AcDbArc
50
90
51
180
0
LINE
5
196
100
AcDbEntity
8
0
100
AcDbLine
10
6.7362607291868839
20
-37.954787966447789
30
0
11
6.7362607291868741
21
-45.406037966447805
31
0
0
ARC
5
197
100
AcDbEntity
8
0
100
AcDbCircle
10
7.7362607291868706
20
-45.406037966447805
30
0
40
0.99999999999999645
210
0
220
0
230
1
100
AcDbArc
50
180
51
270
0
LINE
5
198
100
AcDbEntity
8
0
100
AcDbLine
10
7.7362607291868706
20
-46.406037966447798
30
0
11
10.013939300615458
21
-46.406037966447798
31
0
0
ARC
5
199
100
AcDbEntity
8
0
100
AcDbCircle
10
10.013939300615458
20
-45.406037966447805
30
0
40
0.99999999999999645
210
0
220
0
230
1
100
AcDbArc
50
-90
51
0
0
LINE
5
200
100
AcDbEntity
8
0
100
AcDbLine
10
11.013939300615455
20
-45.406037966447805
30
0
11
11.013939300615448
21
-37.954787966447789
31
0
0
ARC
5
201
100
AcDbEntity
8
0
100
AcDbCircle
10
10.013939300615458
20
-37.954787966447789
30
0
40
0.99999999999998979
210
-0
220
0
230
1
100
AcDbArc
50
0
51
90
0
LINE
5
202
100
AcDbEntity
8
0
100
AcDbLine
10
10.013939300615458
20
-36.954787966447796
30
0
11
7.7362607291868759
21
-36.954787966447796
31
0
0
ARC
5
203
100
AcDbEntity
8
0
100
AcDbCircle
10
13.180814300615449
20
-38.327912966447798
30
0
40
1.3731250000000061
210
0
220
-0
230
1
100
AcDbArc
50
90
51
180
0
LINE
5
204
100
AcDbEntity
8
0
100
AcDbLine
10
11.807689300615444
20
-38.327912966447805
30
0
11
11.807689300615445
21
-45.419787966447814
31
0
0
ARC
5
205
100
AcDbEntity
8
0
100
AcDbCircle
10
10.027689300615437
20
-45.419787966447807
30
0
40
1.7800000000000273
210
0
220
0
230
1
100
AcDbArc
50
275.04122873598789
51
360
0
ARC
5
206
100
AcDbEntity
8
0
100
AcDbCircle
10
10.271975014920439
20
-48.189034161676233
30
0
40
1.0000000000000879
210
0
220
0
230
1
100
AcDbArc
50
95.041228735986465
51
180
0
LINE
5
207
100
AcDbEntity
8
0
100
AcDbLine
10
9.2719750149203524
20
-48.189034161673526
30
0
11
9.2719750149011588
21
-55.277912966444092
31
0
0
ARC
5
208
100
AcDbEntity
8
0
100
AcDbCircle
10
10.645100014901157
20
-55.277912966447801
30
0
40
1.3731249999999984
210
0
220
0
230
1
100
AcDbArc
50
180
51
270
0
LINE
5
209
100
AcDbEntity
8
0
100
AcDbLine
10
10.645100014901157
20
-56.651037966447802
30
0
11
15.98010001490116
21
-56.651037966447802
31
0
0
ARC
5
210
100
AcDbEntity
8
0
100
AcDbCircle
10
15.98010001490116
20
-55.277912966447801
30
0
40
1.3731250000000017
210
0
220
0
230
1
100
AcDbArc
50
-90
51
0
0
LINE
5
211
100
AcDbEntity
8
0
100
AcDbLine
10
17.353225014901163
20
-55.277912966447801
30
0
11
17.353225014901167
21
-47.752559704014914
31
0
0
ARC
5
212
100
AcDbEntity
8
0
100
AcDbCircle
10
16.353225014901152
20
-47.752559704014914
30
0
40
1.000000000000012
210
0
220
-0
230
1
100
AcDbArc
50
0
51
57.047997365275513
0
ARC
5
213
100
AcDbEntity
8
0
100
AcDbCircle
10
17.865367872044036
20
-45.419787966447807
30
0
40
1.7800000000000105
210
0
220
0
230
1
100
AcDbArc
50
180
51
237.04799736527536
0
LINE
5
214
100
AcDbEntity
8
0
100
AcDbLine
10
16.085367872044024
20
-45.419787966447814
30
0
11
16.085367872044024
21
-38.327912966447798
31
0
0
ARC
5
215
100
AcDbEntity
8
0
100
AcDbCircle
10
14.712242872044026
20
-38.327912966447798
30
0
40
1.3731249999999973
210
0
220
-0
230
1
100
AcDbArc
50
0
51
90
0
LINE
5
216
100
AcDbEntity
8
0
100
AcDbLine
10
14.712242872044026
20
-36.954787966447803
30
0
11
13.180814300615449
21
-36.954787966447796
31
0
0
ARC
5
217
100
AcDbEntity
8
0
100
AcDbCircle
10
17.879117872044027
20
-37.954787966447803
30
0
40
1.0000000000000053
210
0
220
-0
230
1
100
AcDbArc
50
90
51
180
0
LINE
5
218
100
AcDbEntity
8
0
100
AcDbLine
10
16.879117872044024
20
-37.954787966447803
30
0
11
16.87911787204402
21
-45.406037966447805
31
0
0
ARC
5
219
100
AcDbEntity
8
0
100
AcDbCircle
10
17.879117872044016
20
-45.406037966447805
30
0
40
0.99999999999999645
210
0
220
0
230
1
100
AcDbArc
50
180
51
270
0
LINE
5
220
100
AcDbEntity
8
0
100
AcDbLine
10
17.879117872044016
20
-46.406037966447798
30
0
11
20.156796443472604
21
-46.406037966447798
31
0
0
ARC
5
221
100
AcDbEntity
8
0
100
AcDbCircle
10
20.156796443472604
20
-45.406037966447805
30
0
40
0.99999999999999645
210
0
220
0
230
1
100
AcDbArc
50
-90
51
0
0
LINE
5
222
100
AcDbEntity
8
0
100
AcDbLine
10
21.156796443472601
20
-45.406037966447805
30
0
11
21.156796443472597
21
-37.954787966447803
31
0
0
ARC
5
223
100
AcDbEntity
8
0
100
AcDbCircle
10
20.156796443472594
20
-37.954787966447803
30
0
40
1.0000000000000009
210
0
220
-0
230
1
100
AcDbArc
50
0
51
90
0
LINE
5
224
100
AcDbEntity
8
0
100
AcDbLine
10
20.156796443472594
20
-36.954787966447796
30
0
11
17.879117872044027
21
-36.954787966447796
31
0
0
LWPOLYLINE
5
225
100
AcDbEntity
8
0
100
AcDbPolyline
90
12
70
1
43
0.0
10
26.228225014901167
20
-38.33791296644781
42
0.41421356237309792
10
24.845100014901153
20
-36.95478796644781
10
23.333671443472586
20
-36.95478796644781
42
0.4142135623730922
10
21.950546443472597
20
-38.33791296644781
10
21.950546443472593
20
-45.419787966447807
42
-0.41421356237309287
10
20.170546443472588
20
-47.199787966447808
10
19.14697501490118
20
-47.199787966447815
42
0.41421356237309503
10
18.146975014901177
20
-48.199787966447822
10
18.146975014901159
20
-55.229899985098839
42
0.41421356237309503
10
19.520100014901168
20
-56.603024985098848
10
24.845100014901931
20
-56.603024985098841
42
0.41421356237312512
10
26.228225014901916
20
-55.219899985098692
0
LWPOLYLINE
5
226
100
AcDbEntity
8
0
100
AcDbPolyline
90
8
70
1
43
0.0
10
28.395100014901171
20
-36.95478796644781
42
0.41421356237309503
10
27.021975014901169
20
-38.327912966447812
10
27.021975014901169
20
-55.277912966447801
42
0.41421356237309503
10
28.395100014901175
20
-56.651037966447802
10
29.85312498509883
20
-56.651037966447817
42
0.41421356237309503
10
35.103124985098837
20
-51.401037966447809
10
35.103124985098837
20
-38.327912966447812
42
0.41421356237309503
10
33.729999985098836
20
-36.95478796644781
0
LINE
5
227
100
AcDbEntity
8
0
100
AcDbLine
10
30.217200000000012
20
-57.999900000000004
30
0
11
-30.217300000000009
21
-57.999900000000004
31
0
0
LINE
5
228
100
AcDbEntity
8
0
100
AcDbLine
10
-36.499899999999997
20
-51.71729999999998
30
0
11
-36.499899999999997
21
51.717199999999991
31
0
0
LINE
5
229
100
AcDbEntity
8
0
100
AcDbLine
10
36.499999999999993
20
51.717199999999998
30
0
11
36.499999999999993
21
-51.717299999999973
31
0
0
LWPOLYLINE
5
230
100
AcDbEntity
8
0
100
AcDbPolyline
90
114
70
1
43
0.0
10
5.6948959999999529
20
57.905134999999966
10
5.5886849999999546
20
57.959252999999968
10
5.4709499999999558
20
57.977899999999963
10
-5.4510499999999231
20
57.977899999999963
10
-5.5687849999999219
20
57.959252999999968
10
-5.6749959999999211
20
57.905134999999966
10
-5.7592849999999194
20
57.820845999999968
10
-5.8134029999999184
20
57.714634999999966
10
-5.8320499999999198
20
57.596899999999962
10
-5.8320499999999198
20
54.167899999999982
10
-5.8493599999999191
20
54.036419999999985
10
-5.9001089999999179
20
53.913899999999984
10
-5.9808399999999171
20
53.808689999999984
10
-6.0860499999999167
20
53.727958999999991
10
-6.2085699999999155
20
53.677209999999988
10
-6.3400499999999136
20
53.659899999999979
10
-7.5100499999999002
20
53.469899999999988
10
-10.010049999999872
20
52.759899999999995
10
-12.960049999999841
20
51.609899999999996
10
-15.610049999999809
20
50.269900000000007
10
-18.31004999999978
20
48.539900000000017
10
-20.32004999999976
20
46.969900000000024
10
-22.110049999999735
20
45.339900000000036
10
-23.65004999999972
20
43.709900000000047
10
-25.210049999999708
20
41.809900000000049
10
-26.660049999999693
20
39.689900000000065
10
-28.06004999999967
20
37.209900000000076
10
-28.960049999999669
20
35.299900000000086
10
-29.77004999999966
20
33.169900000000098
10
-30.310049999999652
20
31.42990000000011
10
-30.740049999999641
20
29.679900000000114
10
-31.010049999999644
20
28.269900000000124
10
-31.230049999999636
20
26.739900000000134
10
-31.400049999999638
20
24.649900000000144
10
-31.450049999999635
20
23.109900000000152
10
-31.370049999999637
20
20.94990000000017
10
-31.220049999999638
20
19.28990000000017
10
-30.830049999999645
20
16.849900000000186
10
-30.300049999999654
20
14.619900000000211
10
-29.52004999999966
20
12.19990000000022
10
-28.450049999999678
20
9.6499000000002297
10
-26.670049999999694
20
6.4199000000002471
10
-24.690049999999715
20
3.6099000000002657
10
-22.060049999999745
20
0.68990000000027751
10
-19.650049999999769
20
-1.4400999999997011
10
-17.540049999999788
20
-2.990099999999698
10
-16.140049999999807
20
-3.8700999999996939
10
-13.850049999999833
20
-5.1100999999996795
10
-11.690049999999859
20
-6.0700999999996821
10
-9.3200499999998847
20
-6.9000999999996848
10
-6.880049999999911
20
-7.5400999999996765
10
-3.9400499999999434
20
-8.0400999999996756
10
-1.7200499999999685
20
-8.2300999999996787
10
0.21995000000001041
20
-8.2700999999996672
10
2.8199499999999809
20
-8.1300999999996648
10
4.8799499999999583
20
-7.8700999999996766
10
7.1699499999999343
20
-7.4100999999996748
10
8.7699499999999162
20
-6.9800999999996822
10
10.519949999999895
20
-6.4100999999996713
10
12.259949999999876
20
-5.7200999999996807
10
14.369949999999854
20
-4.7100999999996915
10
15.839949999999838
20
-3.8900999999996921
10
17.42994999999982
20
-2.8800999999997021
10
19.009949999999805
20
-1.7300999999997009
10
20.329949999999787
20
-0.6500999999997128
10
21.759949999999769
20
0.65990000000027949
10
23.299949999999754
20
2.2799000000002771
10
24.629949999999742
20
3.8799000000002692
10
25.709949999999722
20
5.3599000000002581
10
26.809949999999713
20
7.0999000000002521
10
27.699949999999703
20
8.6899000000002324
10
28.669949999999702
20
10.759900000000229
10
29.419949999999684
20
12.679900000000222
10
30.049949999999676
20
14.669900000000203
10
30.489949999999673
20
16.519900000000199
10
30.789949999999671
20
18.119900000000186
10
30.999949999999671
20
19.749900000000181
10
31.129949999999667
20
21.369900000000172
10
31.169949999999673
20
23.049900000000161
10
31.129949999999667
20
24.739900000000155
10
30.979949999999672
20
26.54990000000015
10
30.689949999999683
20
28.549900000000132
10
30.319949999999679
20
30.319900000000125
10
29.909949999999682
20
31.869900000000118
10
29.379949999999688
20
33.49990000000011
10
28.739949999999702
20
35.149900000000102
10
27.859949999999706
20
37.079900000000087
10
26.549949999999718
20
39.439900000000073
10
25.669949999999734
20
40.779900000000069
10
24.919949999999744
20
41.819900000000061
10
23.799949999999757
20
43.219900000000059
10
22.809949999999759
20
44.339900000000043
10
21.579949999999776
20
45.589900000000029
10
20.309949999999791
20
46.749900000000025
10
18.779949999999808
20
47.98990000000002
10
17.459949999999825
20
48.939900000000023
10
16.229949999999839
20
49.739900000000006
10
14.779949999999854
20
50.569900000000004
10
13.739949999999865
20
51.109900000000003
10
12.63994999999988
20
51.629900000000006
10
11.639949999999891
20
52.069900000000004
10
10.219949999999905
20
52.5899
10
8.8899499999999207
20
53.039899999999996
10
7.1399499999999367
20
53.49989999999999
10
6.359949999999948
20
53.659899999999993
10
6.2284699999999464
20
53.677209999999995
10
6.1059499999999485
20
53.727958999999998
10
6.0007399999999498
20
53.808689999999984
10
5.9200089999999514
20
53.913899999999984
10
5.8692599999999517
20
54.036419999999985
10
5.8519499999999516
20
54.167899999999989
10
5.8519499999999516
20
57.596899999999977
10
5.8333029999999511
20
57.714634999999973
10
5.7791849999999538
20
57.820845999999968
0
LWPOLYLINE
5
231
100
AcDbEntity
8
0
100
AcDbPolyline
90
88
70
1
43
0.0
10
-2.1500499999999603
20
46.049900000000036
10
-4.9999999983951771e-05
20
46.13990000000004
10
0.89995000000000613
20
46.11990000000003
10
2.0799499999999931
20
46.039900000000031
10
3.4599499999999783
20
45.879900000000035
10
4.5999499999999651
20
45.679900000000025
10
5.7099499999999539
20
45.419900000000041
10
6.5199499999999428
20
45.199900000000035
10
7.5099499999999324
20
44.879900000000035
10
8.3899499999999225
20
44.559900000000034
10
9.7299499999999064
20
43.999900000000039
10
11.009949999999893
20
43.359900000000039
10
12.279949999999882
20
42.619900000000051
10
13.589949999999869
20
41.729900000000058
10
14.759949999999852
20
40.829900000000059
10
15.579949999999844
20
40.119900000000058
10
16.439949999999836
20
39.289900000000074
10
17.369949999999825
20
38.299900000000079
10
18.329949999999812
20
37.119900000000079
10
19.019949999999806
20
36.199900000000092
10
20.049949999999797
20
34.579900000000102
10
20.609949999999788
20
33.5499000000001
10
21.169949999999783
20
32.379900000000113
10
21.579949999999776
20
31.419900000000119
10
21.889949999999772
20
30.569900000000118
10
22.249949999999767
20
29.439900000000129
10
22.579949999999762
20
28.16990000000014
10
22.809949999999763
20
27.039900000000138
10
22.899949999999762
20
26.439900000000147
10
23.039949999999759
20
25.359900000000145
10
23.129949999999759
20
24.239900000000159
10
23.15994999999976
20
23.149900000000159
10
23.149949999999755
20
21.989900000000169
10
23.08994999999976
20
21.119900000000168
10
22.979949999999757
20
20.089900000000181
10
22.869949999999765
20
19.299900000000179
10
22.719949999999759
20
18.439900000000186
10
22.35994999999977
20
16.919900000000201
10
22.099949999999772
20
16.019900000000206
10
21.709949999999772
20
14.869900000000198
10
21.179949999999774
20
13.589900000000215
10
20.779949999999783
20
12.729900000000217
10
20.229949999999786
20
11.68990000000022
10
19.599949999999794
20
10.609900000000232
10
18.799949999999807
20
9.429900000000238
10
17.999949999999817
20
8.3899000000002353
10
17.199949999999824
20
7.44990000000025
10
15.829949999999842
20
6.0499000000002559
10
14.809949999999851
20
5.1599000000002482
10
12.819949999999874
20
3.6699000000002693
10
10.749949999999895
20
2.449900000000278
10
8.6599499999999203
20
1.479900000000272
10
6.3699499999999425
20
0.6799000000002795
10
4.3599499999999649
20
0.20990000000028944
10
2.6699499999999841
20
-0.050099999999709717
10
-0.060049999999985393
20
-0.20009999999971617
10
-2.5100499999999588
20
-0.060099999999724277
10
-5.370049999999928
20
0.4199000000002831
10
-8.030049999999898
20
1.2199000000002731
10
-10.58004999999987
20
2.3399000000002723
10
-12.750049999999844
20
3.6099000000002697
10
-14.320049999999826
20
4.7499000000002596
10
-16.160049999999806
20
6.3499000000002503
10
-17.58004999999979
20
7.8699000000002339
10
-18.410049999999782
20
8.8899000000002317
10
-19.580049999999765
20
10.56990000000023
10
-20.100049999999765
20
11.439900000000222
10
-21.07004999999976
20
13.299900000000207
10
-21.620049999999754
20
14.599900000000209
10
-22.130049999999745
20
16.049900000000193
10
-22.430049999999738
20
17.139900000000189
10
-22.810049999999737
20
18.84990000000019
10
-22.980049999999732
20
19.899900000000169
10
-23.140049999999732
20
21.609900000000163
10
-23.190049999999729
20
23.339900000000156
10
-23.060049999999727
20
25.359900000000142
10
-22.680049999999735
20
27.779900000000129
10
-22.070049999999739
20
30.069900000000118
10
-21.380049999999748
20
31.949900000000106
10
-20.510049999999758
20
33.7999000000001
10
-19.810049999999766
20
34.999900000000089
10
-18.530049999999779
20
36.889900000000083
10
-16.930049999999795
20
38.799900000000072
10
-14.850049999999817
20
40.769900000000064
10
-12.360049999999845
20
42.569900000000047
10
-9.690049999999875
20
44.02990000000004
10
-7.0100499999999073
20
45.069900000000032
10
-4.5800499999999342
20
45.699900000000035
0
CIRCLE
5
232
100
AcDbEntity
8
0
100
AcDbCircle
10
3.8199499999999742
20
56.199899999999978
30
0
40
0.49999999999999722
210
0
220
-0
230
1
0
CIRCLE
5
233
100
AcDbEntity
8
0
100
AcDbCircle
10
1.2799500000000026
20
56.199899999999978
30
0
40
0.49999999999999722
210
0
220
-0
230
1
0
CIRCLE
5
234
100
AcDbEntity
8
0
100
AcDbCircle
10
-1.2600499999999695
20
56.199899999999978
30
0
40
0.49999999999999722
210
0
220
-0
230
1
0
CIRCLE
5
235
100
AcDbEntity
8
0
100
AcDbCircle
10
-3.8000499999999415
20
56.199899999999978
30
0
40
0.49999999999999722
210
0
220
-0
230
1
0
ARC
5
236
100
AcDbEntity
8
0
100
AcDbCircle
10
-20.923774985098845
20
-37.913854532712193
30
0
40
1.0000000000000031
210
-0
220
0
230
1
100
AcDbArc
50
0
51
89.949341074817369
0
LINE
5
237
100
AcDbEntity
8
0
100
AcDbLine
10
-20.922890820174086
20
-36.913854923586072
30
0
11
-23.455140820174098
21
-36.911615996080208
31
0
0
ARC
5
238
100
AcDbEntity
8
0
100
AcDbCircle
10
-23.456024985098853
20
-37.911615605206322
30
0
40
1
210
0
220
-0
230
1
100
AcDbArc
50
89.949341074817582
51
180
0
ARC
5
239
100
AcDbEntity
8
0
100
AcDbCircle
10
-15.59777498509883
20
-45.406037966447805
30
0
40
0.99999999999999645
210
0
220
0
230
1
100
AcDbArc
50
-90
51
0
0
LINE
5
240
100
AcDbEntity
8
0
100
AcDbLine
10
-10.654899985098838
20
-36.95478796644781
30
0
11
-12.42089998509883
21
-36.954787966447803
31
0
0
ARC
5
241
100
AcDbEntity
8
0
100
AcDbCircle
10
-12.42089998509883
20
-38.337912966447803
30
0
40
1.3831250000000006
210
0
220
-0
230
1
100
AcDbArc
50
90
51
180
0
LINE
5
242
100
AcDbEntity
8
0
100
AcDbLine
10
-15.600899985098952
20
-47.199787966447822
30
0
11
-15.979899985098772
21
-47.199787966447801
31
0
0
ARC
5
243
100
AcDbEntity
8
0
100
AcDbCircle
10
-2.4065964136702758
20
-45.406037966447805
30
0
40
0.99999999999999667
210
0
220
0
230
1
100
AcDbArc
50
180
51
270
0
ENDSEC
0
SECTION
2
OBJECTS
0
DICTIONARY
5
C
100
AcDbDictionary
3
ACAD_GROUP
350
D
3
ACAD_MLINESTYLE
350
17
0
DICTIONARY
5
D
100
AcDbDictionary
0
DICTIONARY
5
1A
330
C
100
AcDbDictionary
0
DICTIONARY
5
17
100
AcDbDictionary
0
ENDSEC
0
EOF
